<svg width="69" height="69" viewBox="0 0 69 69" fill="none" xmlns="http://www.w3.org/2000/svg">
<path fill-rule="evenodd" clip-rule="evenodd" d="M34.5 69C53.5538 69 69 53.5538 69 34.5C69 15.4462 53.5538 0 34.5 0C15.4462 0 0 15.4462 0 34.5C0 53.5538 15.4462 69 34.5 69Z" fill="#FF8C22" fill-opacity="0.1"/>
<path d="M32.4118 37H23.5882C23.2635 37 23 36.7243 23 36.3846V21.6154C23 21.2757 23.2635 21 23.5882 21H32.4118C32.7365 21 33 21.2757 33 21.6154V36.3846C33 36.7243 32.7365 37 32.4118 37Z" fill="#FF8C22"/>
<path d="M32.4118 49H23.5882C23.2635 49 23 48.712 23 48.3571V40.6429C23 40.288 23.2635 40 23.5882 40H32.4118C32.7365 40 33 40.288 33 40.6429V48.3571C33 48.712 32.7365 49 32.4118 49Z" fill="#FF8C22"/>
<path d="M46.4118 30H37.5882C37.2635 30 37 29.712 37 29.3571V21.6429C37 21.288 37.2635 21 37.5882 21H46.4118C46.7365 21 47 21.288 47 21.6429V29.3571C47 29.712 46.7365 30 46.4118 30Z" fill="#FF8C22"/>
<path d="M46.4118 49H37.5882C37.2635 49 37 48.7243 37 48.3846V33.6154C37 33.2757 37.2635 33 37.5882 33H46.4118C46.7365 33 47 33.2757 47 33.6154V48.3846C47 48.7243 46.7365 49 46.4118 49Z" fill="#FF8C22"/>
</svg>
