<svg width="69" height="69" viewBox="0 0 69 69" fill="none" xmlns="http://www.w3.org/2000/svg">
<path fill-rule="evenodd" clip-rule="evenodd" d="M34.5 69C53.5538 69 69 53.5538 69 34.5C69 15.4462 53.5538 0 34.5 0C15.4462 0 0 15.4462 0 34.5C0 53.5538 15.4462 69 34.5 69Z" fill="#F04037" fill-opacity="0.1"/>
<path d="M46.5312 22.4688H22.4688C21.8886 22.4688 21.3322 22.6992 20.922 23.1095C20.5117 23.5197 20.2812 24.0761 20.2812 24.6562V42.1562C20.2812 42.7364 20.5117 43.2928 20.922 43.703C21.3322 44.1133 21.8886 44.3438 22.4688 44.3438H30.6035L32.627 47.7207C32.8216 48.0434 33.0964 48.3103 33.4245 48.4956C33.7527 48.6809 34.1231 48.7782 34.5 48.7782C34.8769 48.7782 35.2473 48.6809 35.5755 48.4956C35.9036 48.3103 36.1784 48.0434 36.373 47.7207L38.3965 44.3438H46.5312C47.1114 44.3438 47.6678 44.1133 48.078 43.703C48.4883 43.2928 48.7188 42.7364 48.7188 42.1562V24.6562C48.7188 24.0761 48.4883 23.5197 48.078 23.1095C47.6678 22.6992 47.1114 22.4688 46.5312 22.4688ZM27.9375 35.0469C27.613 35.0469 27.2958 34.9507 27.026 34.7704C26.7562 34.5901 26.5459 34.3339 26.4218 34.0341C26.2976 33.7343 26.2651 33.4044 26.3284 33.0862C26.3917 32.7679 26.548 32.4756 26.7774 32.2462C27.0068 32.0167 27.2992 31.8605 27.6174 31.7971C27.9357 31.7338 28.2656 31.7663 28.5653 31.8905C28.8651 32.0147 29.1214 32.225 29.3016 32.4948C29.4819 32.7646 29.5781 33.0818 29.5781 33.4062C29.5781 33.8414 29.4053 34.2587 29.0976 34.5663C28.7899 34.874 28.3726 35.0469 27.9375 35.0469ZM34.5 35.0469C34.1755 35.0469 33.8583 34.9507 33.5885 34.7704C33.3187 34.5901 33.1084 34.3339 32.9843 34.0341C32.8601 33.7343 32.8276 33.4044 32.8909 33.0862C32.9542 32.7679 33.1105 32.4756 33.3399 32.2462C33.5693 32.0167 33.8617 31.8605 34.1799 31.7971C34.4982 31.7338 34.8281 31.7663 35.1278 31.8905C35.4276 32.0147 35.6839 32.225 35.8641 32.4948C36.0444 32.7646 36.1406 33.0818 36.1406 33.4062C36.1406 33.8414 35.9678 34.2587 35.6601 34.5663C35.3524 34.874 34.9351 35.0469 34.5 35.0469ZM41.0625 35.0469C40.738 35.0469 40.4208 34.9507 40.151 34.7704C39.8812 34.5901 39.6709 34.3339 39.5468 34.0341C39.4226 33.7343 39.3901 33.4044 39.4534 33.0862C39.5167 32.7679 39.673 32.4756 39.9024 32.2462C40.1318 32.0167 40.4242 31.8605 40.7424 31.7971C41.0607 31.7338 41.3906 31.7663 41.6903 31.8905C41.9901 32.0147 42.2464 32.225 42.4266 32.4948C42.6069 32.7646 42.7031 33.0818 42.7031 33.4062C42.7031 33.8414 42.5303 34.2587 42.2226 34.5663C41.9149 34.874 41.4976 35.0469 41.0625 35.0469Z" fill="#F04037"/>
</svg>
