<svg width="69" height="69" viewBox="0 0 69 69" fill="none" xmlns="http://www.w3.org/2000/svg">
<path fill-rule="evenodd" clip-rule="evenodd" d="M34.5 69C53.5538 69 69 53.5538 69 34.5C69 15.4462 53.5538 0 34.5 0C15.4462 0 0 15.4462 0 34.5C0 53.5538 15.4462 69 34.5 69Z" fill="#3BCCBB" fill-opacity="0.1"/>
<path d="M25.75 36.1406C25.7519 36.2848 25.7248 36.4278 25.6705 36.5614C25.6162 36.6949 25.5357 36.8162 25.4338 36.9181C25.3319 37.0201 25.2105 37.1005 25.077 37.1549C24.9435 37.2092 24.8004 37.2362 24.6563 37.2344H18.6407C18.4375 37.2327 18.2386 37.1759 18.0652 37.0699C17.8918 36.964 17.7505 36.8129 17.6563 36.6328C17.5687 36.4495 17.5327 36.2457 17.5519 36.0435C17.5712 35.8412 17.6451 35.6479 17.7657 35.4844C18.7336 34.1851 20.0252 33.1621 21.5118 32.5176C20.873 31.9329 20.3822 31.2048 20.0798 30.3934C19.7774 29.5819 19.6721 28.7103 19.7724 27.8501C19.8727 26.99 20.1759 26.166 20.6569 25.4459C21.138 24.7258 21.7831 24.1303 22.5393 23.7083C23.2955 23.2863 24.1411 23.0499 25.0065 23.0185C25.8719 22.9872 26.7323 23.1618 27.5171 23.5281C28.3018 23.8943 28.9883 24.4416 29.5202 25.125C30.052 25.8084 30.414 26.6084 30.5762 27.459C30.6167 27.6805 30.5886 27.9091 30.4958 28.1143C30.403 28.3195 30.2498 28.4915 30.0567 28.6074C28.2884 29.656 26.9435 31.2911 26.2559 33.2285C25.9169 34.1618 25.7457 35.1477 25.75 36.1406ZM51.2344 35.4844C50.2665 34.1851 48.9748 33.1621 47.4883 32.5176C48.1271 31.9329 48.6179 31.2048 48.9202 30.3934C49.2226 29.5819 49.328 28.7103 49.2277 27.8501C49.1274 26.99 48.8242 26.166 48.3432 25.4459C47.8621 24.7258 47.217 24.1303 46.4608 23.7083C45.7046 23.2863 44.859 23.0499 43.9936 23.0185C43.1282 22.9872 42.2677 23.1618 41.483 23.5281C40.6983 23.8943 40.0118 24.4416 39.4799 25.125C38.9481 25.8084 38.5861 26.6084 38.4239 27.459C38.3834 27.6805 38.4115 27.9091 38.5043 28.1143C38.5971 28.3195 38.7503 28.4915 38.9434 28.6074C40.714 29.6533 42.0596 31.2894 42.7442 33.2285C43.0832 34.1618 43.2544 35.1477 43.25 36.1406C43.2482 36.2848 43.2752 36.4278 43.3296 36.5614C43.3839 36.6949 43.4644 36.8162 43.5663 36.9181C43.6682 37.0201 43.7895 37.1005 43.9231 37.1549C44.0566 37.2092 44.1997 37.2362 44.3438 37.2344H50.3594C50.5625 37.2344 50.7617 37.1778 50.9344 37.071C51.1072 36.9642 51.2469 36.8115 51.3377 36.6298C51.4285 36.4481 51.467 36.2447 51.4487 36.0424C51.4305 35.8401 51.3563 35.6469 51.2344 35.4844ZM38.4922 41.3496C39.5808 40.5153 40.3805 39.3609 40.7792 38.0486C41.1778 36.7363 41.1553 35.3321 40.7148 34.0333C40.2743 32.7345 39.438 31.6063 38.3233 30.8073C37.2086 30.0083 35.8715 29.5786 34.5 29.5786C33.1286 29.5786 31.7915 30.0083 30.6768 30.8073C29.5621 31.6063 28.7257 32.7345 28.2852 34.0333C27.8447 35.3321 27.8222 36.7363 28.2209 38.0486C28.6195 39.3609 29.4193 40.5153 30.5079 41.3496C28.3812 42.2938 26.6571 43.9597 25.6407 46.0527C25.5598 46.2191 25.5236 46.4036 25.5356 46.5882C25.5475 46.7727 25.6073 46.951 25.709 47.1055C25.8037 47.2639 25.9379 47.3951 26.0984 47.4862C26.259 47.5773 26.4405 47.6251 26.625 47.625H42.375C42.5596 47.6251 42.7411 47.5773 42.9017 47.4862C43.0622 47.3951 43.1964 47.2639 43.2911 47.1055C43.3928 46.951 43.4525 46.7727 43.4645 46.5882C43.4765 46.4036 43.4403 46.2191 43.3594 46.0527C42.3429 43.9597 40.6189 42.2938 38.4922 41.3496Z" fill="#3BCCBB"/>
</svg>
