<svg width="69" height="69" viewBox="0 0 69 69" fill="none" xmlns="http://www.w3.org/2000/svg">
<path fill-rule="evenodd" clip-rule="evenodd" d="M34.5 69C53.5538 69 69 53.5538 69 34.5C69 15.4462 53.5538 0 34.5 0C15.4462 0 0 15.4462 0 34.5C0 53.5538 15.4462 69 34.5 69Z" fill="#5454D4" fill-opacity="0.1"/>
<path d="M50.9063 37.7813C50.9063 38.0713 50.791 38.3495 50.5859 38.5547C50.3808 38.7598 50.1026 38.875 49.8125 38.875H47.625V41.0625C47.625 41.3526 47.5098 41.6308 47.3047 41.8359C47.0995 42.041 46.8213 42.1563 46.5313 42.1563C46.2412 42.1563 45.963 42.041 45.7579 41.8359C45.5527 41.6308 45.4375 41.3526 45.4375 41.0625V38.875H43.25C42.9599 38.875 42.6817 38.7598 42.4766 38.5547C42.2715 38.3495 42.1563 38.0713 42.1563 37.7813C42.1563 37.4912 42.2715 37.213 42.4766 37.0079C42.6817 36.8027 42.9599 36.6875 43.25 36.6875H45.4375V34.5C45.4375 34.2099 45.5527 33.9317 45.7579 33.7266C45.963 33.5215 46.2412 33.4063 46.5313 33.4063C46.8213 33.4063 47.0995 33.5215 47.3047 33.7266C47.5098 33.9317 47.625 34.2099 47.625 34.5V36.6875H49.8125C50.1026 36.6875 50.3808 36.8027 50.5859 37.0079C50.791 37.213 50.9063 37.4912 50.9063 37.7813ZM25.75 26.2969H27.3906V27.9375C27.3906 28.2276 27.5059 28.5058 27.711 28.7109C27.9161 28.916 28.1943 29.0313 28.4844 29.0313C28.7745 29.0313 29.0527 28.916 29.2578 28.7109C29.4629 28.5058 29.5781 28.2276 29.5781 27.9375V26.2969H31.2188C31.5088 26.2969 31.787 26.1817 31.9921 25.9765C32.1973 25.7714 32.3125 25.4932 32.3125 25.2031C32.3125 24.9131 32.1973 24.6349 31.9921 24.4297C31.787 24.2246 31.5088 24.1094 31.2188 24.1094H29.5781V22.4688C29.5781 22.1787 29.4629 21.9005 29.2578 21.6954C29.0527 21.4902 28.7745 21.375 28.4844 21.375C28.1943 21.375 27.9161 21.4902 27.711 21.6954C27.5059 21.9005 27.3906 22.1787 27.3906 22.4688V24.1094H25.75C25.4599 24.1094 25.1817 24.2246 24.9766 24.4297C24.7715 24.6349 24.6563 24.9131 24.6563 25.2031C24.6563 25.4932 24.7715 25.7714 24.9766 25.9765C25.1817 26.1817 25.4599 26.2969 25.75 26.2969ZM42.1563 43.25H41.0625V42.1563C41.0625 41.8662 40.9473 41.588 40.7422 41.3829C40.537 41.1777 40.2588 41.0625 39.9688 41.0625C39.6787 41.0625 39.4005 41.1777 39.1954 41.3829C38.9902 41.588 38.875 41.8662 38.875 42.1563V43.25H37.7813C37.4912 43.25 37.213 43.3652 37.0079 43.5704C36.8027 43.7755 36.6875 44.0537 36.6875 44.3438C36.6875 44.6338 36.8027 44.912 37.0079 45.1172C37.213 45.3223 37.4912 45.4375 37.7813 45.4375H38.875V46.5313C38.875 46.8213 38.9902 47.0995 39.1954 47.3047C39.4005 47.5098 39.6787 47.625 39.9688 47.625C40.2588 47.625 40.537 47.5098 40.7422 47.3047C40.9473 47.0995 41.0625 46.8213 41.0625 46.5313V45.4375H42.1563C42.4463 45.4375 42.7245 45.3223 42.9297 45.1172C43.1348 44.912 43.25 44.6338 43.25 44.3438C43.25 44.0537 43.1348 43.7755 42.9297 43.5704C42.7245 43.3652 42.4463 43.25 42.1563 43.25ZM41.8418 33.0918L27.2949 47.625C27.0928 47.8292 26.8522 47.9913 26.587 48.1019C26.3218 48.2126 26.0373 48.2695 25.75 48.2695C25.4627 48.2695 25.1782 48.2126 24.913 48.1019C24.6478 47.9913 24.4072 47.8292 24.2051 47.625L21.375 44.7949C21.1708 44.5928 21.0087 44.3522 20.8981 44.087C20.7874 43.8218 20.7305 43.5373 20.7305 43.25C20.7305 42.9627 20.7874 42.6782 20.8981 42.413C21.0087 42.1478 21.1708 41.9072 21.375 41.7051L41.7051 21.375C42.1169 20.9692 42.6718 20.7418 43.25 20.7418C43.8282 20.7418 44.3831 20.9692 44.7949 21.375L47.625 24.2051C47.8292 24.4072 47.9913 24.6478 48.1019 24.913C48.2126 25.1782 48.2695 25.4627 48.2695 25.75C48.2695 26.0373 48.2126 26.3218 48.1019 26.587C47.9913 26.8522 47.8292 27.0928 47.625 27.2949L41.8418 33.0918V33.0918ZM38.2324 27.9375L41.0625 30.7676L46.0801 25.75L43.25 22.9199L38.2324 27.9375Z" fill="#5454D4"/>
</svg>
