<svg width="69" height="69" viewBox="0 0 69 69" fill="none" xmlns="http://www.w3.org/2000/svg">
<path fill-rule="evenodd" clip-rule="evenodd" d="M34.5 69C53.5538 69 69 53.5538 69 34.5C69 15.4462 53.5538 0 34.5 0C15.4462 0 0 15.4462 0 34.5C0 53.5538 15.4462 69 34.5 69Z" fill="#FEDC5A" fill-opacity="0.25"/>
<path d="M47.7071 24.0957C46.9658 23.2637 46.0615 22.5929 45.0502 22.1249C44.0389 21.6569 42.9423 21.4017 41.8282 21.375C40.7152 21.3506 39.6087 21.5512 38.575 21.9646C37.5413 22.3781 36.6018 22.996 35.8126 23.7813L34.5001 25.0801L33.4747 24.0684C30.2892 20.8691 25.0939 20.5957 21.9083 23.4805C21.0793 24.2242 20.4107 25.1292 19.9433 26.1401C19.476 27.1511 19.2198 28.2467 19.1904 29.36C19.1609 30.4734 19.3589 31.581 19.7722 32.6152C20.1854 33.6495 20.8053 34.5885 21.5939 35.375L32.9552 46.7363C33.1573 46.9405 33.3979 47.1026 33.6631 47.2133C33.9283 47.3239 34.2128 47.3809 34.5001 47.3809C34.7874 47.3809 35.0719 47.3239 35.3371 47.2133C35.6023 47.1026 35.8429 46.9405 36.045 46.7363L47.1193 35.6621C50.3185 32.4766 50.5782 27.2813 47.7071 24.0957Z" fill="#FEDC5A"/>
</svg>
