<svg width="144" height="158" viewBox="0 0 144 158" fill="none" xmlns="http://www.w3.org/2000/svg">
<g clip-path="url(#clip0_78_479)">
<path d="M99.9923 32.0547C90.0102 30.4628 78.6428 29.6133 66.8043 29.6133C55.97 29.6133 45.5318 30.3237 36.1899 31.6632C36.1921 31.5198 36.1942 31.3764 36.2006 31.2331C36.4483 22.9114 39.9433 15.0166 45.9386 9.23612C51.934 3.45564 59.954 0.248044 68.2846 0.298905C76.6152 0.349766 84.5955 3.65505 90.5197 9.50831C96.4439 15.3616 99.8421 23.2984 99.9881 31.6225C99.9903 31.768 99.9923 31.9114 99.9923 32.0547Z" fill="#8674F6"/>
<g opacity="0.1">
<path d="M72.2751 0.287014C67.8444 -0.311066 63.3373 0.0279083 59.0461 1.28197C54.7548 2.53603 50.7751 4.67719 47.3649 7.56668C43.9547 10.4562 41.1901 14.0295 39.2502 18.0551C37.3103 22.0807 36.2385 26.4687 36.1042 30.9348C36.0977 31.0782 36.0956 31.2215 36.0935 31.3649C38.8689 30.9669 41.7429 30.6259 44.6935 30.3411C45.0544 22.9009 48.0103 15.8217 53.0485 10.3319C58.0866 4.84214 64.8889 1.28828 72.2751 0.287014Z" fill="white"/>
</g>
<path d="M113.948 34.584C109.354 33.3391 104.693 32.3504 99.9881 31.6225C92.2768 30.4283 84.5028 29.6817 76.7051 29.3864C73.4569 29.2538 70.1488 29.1853 66.8043 29.1853C64.1536 29.1853 61.5242 29.2281 58.9312 29.3137C51.325 29.5383 43.7367 30.179 36.2006 31.2331C30.622 32.0007 25.0975 33.1199 19.6601 34.584C6.9823 38.0868 0 42.7815 0 47.8014C0 52.8213 6.98231 57.516 19.6601 61.0188C28.576 63.4838 39.5687 65.1635 51.5464 65.9339C56.4903 66.2548 61.6013 66.4175 66.8043 66.4175C72.0244 66.4175 77.1526 66.2527 82.1115 65.9317C93.0121 65.2277 103.097 63.7705 111.537 61.6522C111.582 61.6393 111.625 61.6286 111.67 61.6179C112.24 61.4767 112.801 61.3291 113.355 61.1814C113.554 61.1258 113.751 61.0723 113.948 61.0188C113.96 61.0143 113.971 61.0107 113.983 61.0081C114.171 60.9567 114.357 60.9032 114.544 60.8519C114.916 60.7449 115.285 60.6401 115.646 60.5309C115.664 60.5266 115.678 60.5224 115.694 60.5181C116.008 60.4239 116.317 60.3298 116.623 60.2356C116.873 60.1565 117.122 60.0794 117.368 60.0003C117.548 59.9425 117.726 59.8847 117.901 59.8269C118.03 59.7841 118.156 59.7435 118.28 59.7007C118.449 59.6451 118.618 59.5873 118.785 59.5295C118.856 59.506 118.927 59.4824 118.995 59.4568C119.156 59.4033 119.312 59.3476 119.468 59.292C119.638 59.2321 119.807 59.17 119.974 59.1101C120.113 59.0609 120.252 59.0095 120.389 58.9582C120.505 58.9133 120.618 58.8705 120.734 58.8277C121.049 58.71 121.357 58.588 121.661 58.4682C121.813 58.4061 121.965 58.3462 122.115 58.2842C122.263 58.2242 122.412 58.1622 122.558 58.1001C122.798 57.9996 123.033 57.899 123.265 57.7984C123.376 57.7471 123.49 57.6979 123.599 57.6508C123.682 57.6123 123.764 57.5759 123.847 57.5374C123.907 57.5117 123.967 57.4839 124.025 57.4561C124.241 57.3576 124.455 57.2571 124.665 57.1565C125.47 56.7713 126.222 56.3776 126.92 55.9753C131.298 53.4697 133.609 50.6901 133.609 47.8014C133.609 42.7815 126.626 38.0868 113.948 34.584ZM113.833 60.608C104.906 63.0751 93.8837 64.7548 81.8738 65.5188C76.9898 65.829 71.941 65.9895 66.8043 65.9895C61.6848 65.9895 56.653 65.8312 51.7841 65.5209C39.755 64.7591 28.7151 63.0794 19.7758 60.608C7.2992 57.1586 0.428233 52.6116 0.428233 47.8014C0.42893 47.3763 0.482164 46.953 0.586729 46.541C1.67864 42.2016 8.39549 38.1403 19.7758 34.9948C25.172 33.5422 30.6542 32.4294 36.19 31.6632C43.7714 30.6032 51.4055 29.9602 59.0575 29.7374C61.6099 29.6539 64.1922 29.6125 66.8043 29.6133C70.1039 29.6133 73.367 29.6796 76.5744 29.808C84.4175 30.1006 92.2368 30.8508 99.9923 32.0547C104.656 32.7794 109.277 33.7609 113.833 34.9948C125.211 38.1403 131.926 42.1994 133.02 46.5368C133.126 46.9499 133.18 47.3748 133.18 47.8014C133.18 52.6116 126.309 57.1586 113.833 60.608Z" fill="#3F3D56"/>
<path d="M133.487 47.9961C133.487 50.8549 131.129 53.5595 126.92 55.9754C126.22 56.3776 125.466 56.7713 124.665 57.1565C124.455 57.2571 124.241 57.3576 124.025 57.4561C123.967 57.4839 123.907 57.5117 123.847 57.5374C123.764 57.5759 123.682 57.6123 123.599 57.6508C123.49 57.6979 123.376 57.7471 123.265 57.7984C123.033 57.899 122.798 57.9996 122.558 58.1001C122.412 58.1622 122.263 58.2242 122.115 58.2842C121.965 58.3462 121.813 58.4061 121.661 58.4682C121.357 58.588 121.049 58.71 120.734 58.8277C120.618 58.8705 120.505 58.9133 120.389 58.9582C120.252 59.0095 120.113 59.0609 119.974 59.1101C119.807 59.17 119.638 59.2321 119.468 59.292C119.312 59.3476 119.156 59.4033 118.995 59.4568C118.927 59.4824 118.856 59.506 118.785 59.5295C118.618 59.5873 118.449 59.6451 118.28 59.7007C118.156 59.7435 118.03 59.7841 117.901 59.8269C117.725 59.8847 117.548 59.9425 117.368 60.0003C117.122 60.0794 116.873 60.1565 116.623 60.2356C116.317 60.3298 116.008 60.4239 115.694 60.5181C115.678 60.5224 115.664 60.5267 115.646 60.5309C115.285 60.6401 114.916 60.7449 114.544 60.8519C114.357 60.9033 114.171 60.9567 113.983 61.0081C113.971 61.0107 113.96 61.0143 113.949 61.0188C113.751 61.0723 113.554 61.1258 113.355 61.1814C112.803 61.3269 112.24 61.4746 111.67 61.6179C111.625 61.6286 111.582 61.6393 111.538 61.6522C103.326 63.7021 93.252 65.1956 82.103 65.9167C77.219 66.2313 72.1273 66.3982 66.8965 66.3982C61.6185 66.3982 56.4839 66.2292 51.5614 65.9082C22.176 63.9931 0.306274 56.7007 0.306274 47.9961C0.308588 47.4664 0.389374 46.9401 0.546005 46.4341C0.558865 46.4704 0.571723 46.5047 0.586779 46.5411C3.64212 54.5609 25.3258 61.0423 53.4607 62.6236C57.7708 62.8676 62.2352 62.9938 66.8044 62.9938C71.3929 62.9938 75.8743 62.8654 80.2016 62.6215C108.313 61.0338 129.975 54.5502 133.02 46.5368C133.071 46.4084 133.116 46.28 133.155 46.1516C133.372 46.7425 133.484 47.3667 133.487 47.9961Z" fill="#3F3D56"/>
<path d="M19.6279 45.6928C16.0644 45.6928 12.2771 44.9267 12.2771 43.5067C12.2771 42.0867 16.0644 41.3205 19.6279 41.3205C23.1913 41.3205 26.9786 42.0867 26.9786 43.5067C26.9786 44.9267 23.1913 45.6928 19.6279 45.6928ZM19.6279 41.7485C15.5483 41.7485 12.7053 42.6751 12.7053 43.5067C12.7053 44.3382 15.5483 45.2649 19.6279 45.2649C23.7074 45.2649 26.5504 44.3382 26.5504 43.5067C26.5504 42.6751 23.7074 41.7485 19.6279 41.7485Z" fill="#3F3D56"/>
<path d="M34.8301 55.7498C31.2667 55.7498 27.4794 54.9836 27.4794 53.5636C27.4794 52.1436 31.2667 51.3774 34.8301 51.3774C38.3936 51.3774 42.1809 52.1436 42.1809 53.5636C42.1809 54.9836 38.3936 55.7498 34.8301 55.7498ZM34.8301 51.8054C30.7506 51.8054 27.9076 52.732 27.9076 53.5636C27.9076 54.3952 30.7506 55.3218 34.8301 55.3218C38.9096 55.3218 41.7527 54.3952 41.7527 53.5636C41.7527 52.732 38.9097 51.8054 34.8301 51.8054Z" fill="#3F3D56"/>
<path d="M113.839 45.6928C110.276 45.6928 106.488 44.9267 106.488 43.5067C106.488 42.0867 110.276 41.3205 113.839 41.3205C117.403 41.3205 121.19 42.0867 121.19 43.5067C121.19 44.9267 117.403 45.6928 113.839 45.6928ZM113.839 41.7485C109.759 41.7485 106.917 42.6751 106.917 43.5067C106.917 44.3382 109.759 45.2649 113.839 45.2649C117.919 45.2649 120.762 44.3382 120.762 43.5067C120.762 42.6751 117.919 41.7485 113.839 41.7485Z" fill="#3F3D56"/>
<path d="M98.6369 55.7498C95.0734 55.7498 91.2861 54.9836 91.2861 53.5636C91.2861 52.1436 95.0734 51.3774 98.6369 51.3774C102.2 51.3774 105.988 52.1436 105.988 53.5636C105.988 54.9836 102.2 55.7498 98.6369 55.7498ZM98.6369 51.8054C94.5573 51.8054 91.7144 52.732 91.7144 53.5636C91.7144 54.3952 94.5573 55.3218 98.6369 55.3218C102.716 55.3218 105.559 54.3952 105.559 53.5636C105.559 52.732 102.716 51.8054 98.6369 51.8054Z" fill="#3F3D56"/>
<path d="M66.7334 60.4573C63.17 60.4573 59.3827 59.6911 59.3827 58.2711C59.3827 56.8511 63.17 56.085 66.7334 56.085C70.2969 56.085 74.0842 56.8511 74.0842 58.2711C74.0842 59.6911 70.2969 60.4573 66.7334 60.4573ZM66.7334 56.5129C62.6539 56.5129 59.8109 57.4396 59.8109 58.2711C59.8109 59.1027 62.6539 60.0293 66.7334 60.0293C70.813 60.0293 73.656 59.1027 73.656 58.2711C73.656 57.4396 70.813 56.5129 66.7334 56.5129Z" fill="#3F3D56"/>
<path d="M72.1525 105.43C77.1206 105.43 81.148 101.406 81.148 96.4408C81.148 91.4759 77.1206 87.451 72.1525 87.451C67.1844 87.451 63.157 91.4759 63.157 96.4408C63.157 101.406 67.1844 105.43 72.1525 105.43Z" fill="#2F2E41"/>
<path d="M68.7318 102.347L64.3538 104.538L65.5774 106.98L69.9555 104.789L68.7318 102.347Z" fill="#2F2E41"/>
<path d="M66.1546 106.732C66.4142 106.339 65.7735 105.459 64.7234 104.767C63.6734 104.075 62.6117 103.833 62.3521 104.227C62.0924 104.62 62.7332 105.5 63.7832 106.192C64.8333 106.884 65.895 107.126 66.1546 106.732Z" fill="#2F2E41"/>
<path d="M75.5732 102.347L74.3495 104.789L78.7275 106.98L79.9512 104.538L75.5732 102.347Z" fill="#2F2E41"/>
<path d="M80.5216 106.192C81.5717 105.5 82.2125 104.62 81.9528 104.227C81.6932 103.833 80.6315 104.075 79.5814 104.767C78.5314 105.459 77.8906 106.339 78.1503 106.732C78.4099 107.126 79.4716 106.884 80.5216 106.192Z" fill="#2F2E41"/>
<path d="M71.5227 97.3142C73.2206 97.3142 74.5971 95.9387 74.5971 94.2418C74.5971 92.5449 73.2206 91.1694 71.5227 91.1694C69.8247 91.1694 68.4482 92.5449 68.4482 94.2418C68.4482 95.9387 69.8247 97.3142 71.5227 97.3142Z" fill="white"/>
<path d="M72.2706 93.6528C72.6691 93.2545 72.6668 92.6065 72.2654 92.2054C71.8641 91.8043 71.2156 91.802 70.8171 92.2003C70.4185 92.5986 70.4208 93.2466 70.8222 93.6477C71.2236 94.0488 71.872 94.0511 72.2706 93.6528Z" fill="#3F3D56"/>
<path d="M79.2487 86.6609C79.3839 83.3328 76.5137 80.5138 72.8378 80.3646C69.162 80.2154 66.0724 82.7924 65.9371 86.1205C65.8019 89.4487 68.3571 90.2048 72.0329 90.3541C75.7088 90.5033 79.1134 89.989 79.2487 86.6609Z" fill="#8674F6"/>
<path d="M84.434 101.148C85.0257 100.64 84.1936 98.702 82.5756 96.8185C80.9576 94.9349 79.1662 93.8195 78.5745 94.3271C77.9828 94.8347 78.8149 96.7732 80.4329 98.6567C82.0509 100.54 83.8423 101.656 84.434 101.148Z" fill="#2F2E41"/>
<path d="M63.8973 98.6567C65.5153 96.7731 66.3473 94.8347 65.7556 94.3271C65.1639 93.8194 63.3726 94.9349 61.7545 96.8184C60.1365 98.702 59.3045 100.64 59.8962 101.148C60.4879 101.656 62.2792 100.54 63.8973 98.6567Z" fill="#2F2E41"/>
<path d="M74.6232 99.9835C74.7205 100.518 74.6014 101.069 74.2921 101.516C73.9828 101.963 73.5086 102.268 72.9738 102.366C72.439 102.463 71.8874 102.344 71.4404 102.035C70.9934 101.726 70.6876 101.252 70.5902 100.717L70.5895 100.713C70.3878 99.6001 71.249 99.2062 72.3629 99.0047C73.4768 98.8032 74.4215 98.8704 74.6232 99.9835Z" fill="white"/>
<path d="M56.955 106.003C56.8414 106.003 56.7325 105.958 56.6522 105.878C56.5719 105.798 56.5267 105.689 56.5267 105.575V80.326C56.5267 80.2125 56.5718 80.1037 56.6522 80.0234C56.7325 79.9432 56.8414 79.8981 56.955 79.8981C57.0685 79.8981 57.1775 79.9432 57.2578 80.0234C57.3381 80.1037 57.3832 80.2125 57.3832 80.326V105.575C57.3832 105.689 57.3381 105.798 57.2578 105.878C57.1775 105.958 57.0685 106.003 56.955 106.003Z" fill="#CCCCCC"/>
<path d="M50.5315 128.685C50.4179 128.685 50.309 128.64 50.2287 128.56C50.1484 128.479 50.1033 128.371 50.1033 128.257V109.855C50.1033 109.741 50.1484 109.633 50.2287 109.552C50.309 109.472 50.4179 109.427 50.5315 109.427C50.6451 109.427 50.754 109.472 50.8343 109.552C50.9146 109.633 50.9597 109.741 50.9597 109.855V128.257C50.9597 128.371 50.9146 128.479 50.8343 128.56C50.754 128.64 50.6451 128.685 50.5315 128.685Z" fill="#CCCCCC"/>
<path d="M67.0184 113.493C66.9049 113.493 66.796 113.447 66.7156 113.367C66.6353 113.287 66.5902 113.178 66.5902 113.065V87.8152C66.5902 87.7017 66.6353 87.5929 66.7156 87.5126C66.7959 87.4324 66.9049 87.3873 67.0184 87.3873C67.132 87.3873 67.2409 87.4324 67.3212 87.5126C67.4016 87.5929 67.4467 87.7017 67.4467 87.8152V113.065C67.4467 113.178 67.4016 113.287 67.3212 113.367C67.2409 113.447 67.132 113.493 67.0184 113.493Z" fill="#CCCCCC"/>
<path d="M60.8091 131.681C60.6955 131.681 60.5866 131.636 60.5063 131.555C60.426 131.475 60.3809 131.366 60.3809 131.253V120.982C60.3809 120.868 60.426 120.759 60.5063 120.679C60.5866 120.599 60.6955 120.554 60.8091 120.554C60.9227 120.554 61.0316 120.599 61.1119 120.679C61.1922 120.759 61.2373 120.868 61.2373 120.982V131.253C61.2373 131.366 61.1922 131.475 61.1119 131.555C61.0316 131.636 60.9227 131.681 60.8091 131.681Z" fill="#CCCCCC"/>
<path d="M69.5878 79.0421C69.4742 79.0421 69.3653 78.997 69.285 78.9168C69.2047 78.8365 69.1596 78.7277 69.1595 78.6142V68.3432C69.1595 68.2297 69.2047 68.1209 69.285 68.0406C69.3653 67.9604 69.4742 67.9153 69.5878 67.9153C69.7014 67.9153 69.8103 67.9604 69.8906 68.0406C69.9709 68.1209 70.016 68.2297 70.016 68.3432V78.6142C70.016 78.7277 69.9709 78.8365 69.8906 78.9168C69.8103 78.997 69.7014 79.0421 69.5878 79.0421Z" fill="#CCCCCC"/>
<path d="M48.1762 83.5357C48.0626 83.5357 47.9537 83.4906 47.8734 83.4103C47.793 83.3301 47.7479 83.2212 47.7479 83.1077V72.8368C47.7479 72.7233 47.793 72.6144 47.8734 72.5342C47.9537 72.4539 48.0626 72.4088 48.1762 72.4088C48.2897 72.4088 48.3987 72.4539 48.479 72.5342C48.5593 72.6144 48.6044 72.7233 48.6044 72.8368V83.1077C48.6044 83.2212 48.5593 83.3301 48.479 83.4103C48.3986 83.4906 48.2897 83.5357 48.1762 83.5357Z" fill="#CCCCCC"/>
<path d="M85.4324 84.6056C85.3188 84.6056 85.2099 84.5605 85.1296 84.4802C85.0493 84.4 85.0042 84.2911 85.0042 84.1776V73.9067C85.0042 73.7932 85.0493 73.6843 85.1296 73.6041C85.2099 73.5238 85.3188 73.4787 85.4324 73.4787C85.546 73.4787 85.6549 73.5238 85.7352 73.6041C85.8155 73.6843 85.8606 73.7932 85.8606 73.9067V84.1776C85.8606 84.2911 85.8155 84.4 85.7352 84.4802C85.6549 84.5605 85.546 84.6056 85.4324 84.6056Z" fill="#CCCCCC"/>
<path d="M84.5759 116.702C84.4624 116.702 84.3534 116.657 84.2731 116.577C84.1928 116.497 84.1477 116.388 84.1477 116.274V103.864C84.1477 103.75 84.1928 103.641 84.2731 103.561C84.3534 103.481 84.4624 103.436 84.5759 103.436C84.6895 103.436 84.7984 103.481 84.8787 103.561C84.959 103.641 85.0042 103.75 85.0042 103.864V116.274C85.0042 116.388 84.959 116.497 84.8787 116.577C84.7984 116.657 84.6895 116.702 84.5759 116.702Z" fill="#CCCCCC"/>
<path d="M76.0112 127.615C75.8977 127.615 75.7887 127.57 75.7084 127.49C75.6281 127.41 75.583 127.301 75.583 127.187V108.785C75.583 108.672 75.6281 108.563 75.7084 108.482C75.7887 108.402 75.8977 108.357 76.0112 108.357C76.1248 108.357 76.2337 108.402 76.314 108.482C76.3943 108.563 76.4395 108.672 76.4395 108.785V127.187C76.4395 127.301 76.3943 127.41 76.314 127.49C76.2337 127.57 76.1248 127.615 76.0112 127.615Z" fill="#CCCCCC"/>
<path d="M77.7243 96.1604C77.6107 96.1604 77.5018 96.1153 77.4215 96.035C77.3411 95.9548 77.296 95.8459 77.296 95.7324V70.483C77.296 70.3695 77.3411 70.2607 77.4214 70.1804C77.5017 70.1002 77.6107 70.0551 77.7243 70.0551C77.8378 70.0551 77.9467 70.1002 78.0271 70.1804C78.1074 70.2607 78.1525 70.3695 78.1525 70.483V95.7324C78.1525 95.8459 78.1074 95.9548 78.0271 96.035C77.9467 96.1153 77.8378 96.1604 77.7243 96.1604Z" fill="#CCCCCC"/>
<path d="M130.224 149.89C130.837 149.377 130.009 147.379 128.374 145.428C126.739 143.477 124.917 142.311 124.304 142.824C123.691 143.337 124.52 145.334 126.154 147.285C127.789 149.236 129.611 150.402 130.224 149.89Z" fill="#2F2E41"/>
<path d="M126.204 147.671C127.815 142.842 125.204 137.623 120.372 136.014C115.541 134.405 110.318 137.014 108.708 141.842C107.097 146.671 109.709 151.89 114.54 153.499C119.372 155.109 124.594 152.499 126.204 147.671Z" fill="#2F2E41"/>
<path d="M121.359 151.989H118.558V157.005H121.359V151.989Z" fill="#2F2E41"/>
<path d="M115.756 151.989H112.955V157.005H115.756V151.989Z" fill="#2F2E41"/>
<path d="M119.025 157.938C120.314 157.938 121.359 157.546 121.359 157.063C121.359 156.58 120.314 156.188 119.025 156.188C117.735 156.188 116.69 156.58 116.69 157.063C116.69 157.546 117.735 157.938 119.025 157.938Z" fill="#2F2E41"/>
<path d="M113.422 157.821C114.711 157.821 115.756 157.43 115.756 156.947C115.756 156.463 114.711 156.072 113.422 156.072C112.132 156.072 111.087 156.463 111.087 156.947C111.087 157.43 112.132 157.821 113.422 157.821Z" fill="#2F2E41"/>
<path d="M114.561 133.172C115.384 129.859 119.019 127.908 122.679 128.817C126.339 129.725 128.639 133.148 127.815 136.462C126.992 139.775 124.26 139.786 120.6 138.878C116.94 137.97 113.737 136.486 114.561 133.172Z" fill="#CCCCCC"/>
<path d="M111.236 142.455C111.578 141.733 109.991 140.264 107.69 139.174C105.389 138.083 103.246 137.784 102.904 138.506C102.561 139.228 104.149 140.697 106.449 141.788C108.75 142.878 110.893 143.177 111.236 142.455Z" fill="#2F2E41"/>
<path d="M116.078 145.884C117.776 145.884 119.152 144.509 119.152 142.812C119.152 141.115 117.776 139.74 116.078 139.74C114.38 139.74 113.003 141.115 113.003 142.812C113.003 144.509 114.38 145.884 116.078 145.884Z" fill="white"/>
<path d="M114.814 142.735C115.38 142.735 115.839 142.276 115.839 141.711C115.839 141.145 115.38 140.687 114.814 140.687C114.248 140.687 113.789 141.145 113.789 141.711C113.789 142.276 114.248 142.735 114.814 142.735Z" fill="#3F3D56"/>
<path d="M116.051 150.511C116.761 150.511 117.336 149.936 117.336 149.227C117.336 148.518 116.761 147.943 116.051 147.943C115.342 147.943 114.766 148.518 114.766 149.227C114.766 149.936 115.342 150.511 116.051 150.511Z" fill="white"/>
<path d="M143.786 158H93.2544C93.1976 158 93.1432 157.977 93.103 157.937C93.0628 157.897 93.0403 157.843 93.0403 157.786C93.0403 157.729 93.0628 157.675 93.103 157.635C93.1432 157.595 93.1976 157.572 93.2544 157.572H143.786C143.843 157.572 143.897 157.595 143.937 157.635C143.977 157.675 144 157.729 144 157.786C144 157.843 143.977 157.897 143.937 157.937C143.897 157.977 143.843 158 143.786 158Z" fill="#3F3D56"/>
</g>
<defs>
<clipPath id="clip0_78_479">
<rect width="144" height="158" fill="white"/>
</clipPath>
</defs>
</svg>
