<svg width="69" height="69" viewBox="0 0 69 69" fill="none" xmlns="http://www.w3.org/2000/svg">
<path fill-rule="evenodd" clip-rule="evenodd" d="M34.5 69C53.5538 69 69 53.5538 69 34.5C69 15.4462 53.5538 0 34.5 0C15.4462 0 0 15.4462 0 34.5C0 53.5538 15.4462 69 34.5 69Z" fill="#B724EB" fill-opacity="0.1"/>
<g clip-path="url(#clip0_164_267)">
<path fill-rule="evenodd" clip-rule="evenodd" d="M32.4375 20.75C30.5738 20.7502 28.7372 21.196 27.0808 22.0503C25.4245 22.9047 23.9965 24.1427 22.9159 25.6612C21.8354 27.1796 21.1336 28.9345 20.8692 30.7793C20.6048 32.6241 20.7854 34.5055 21.3959 36.2663C22.0065 38.0271 23.0292 39.6164 24.3789 40.9016C25.7286 42.1868 27.3661 43.1306 29.1547 43.6542C30.9433 44.1778 32.8312 44.2661 34.6609 43.9118C36.4906 43.5574 38.209 42.7706 39.6727 41.617L44.6942 46.6385C44.9536 46.889 45.3009 47.0276 45.6614 47.0244C46.0219 47.0213 46.3668 46.8767 46.6217 46.6217C46.8767 46.3668 47.0213 46.0219 47.0244 45.6614C47.0275 45.3009 46.8889 44.9536 46.6385 44.6943L41.617 39.6728C42.9755 37.9494 43.8213 35.8783 44.0577 33.6966C44.2942 31.5149 43.9116 29.3108 42.9538 27.3364C41.996 25.362 40.5017 23.6971 38.6419 22.5323C36.7821 21.3675 34.6319 20.7499 32.4375 20.75ZM23.5 32.4375C23.5 30.0671 24.4416 27.7938 26.1177 26.1177C27.7938 24.4416 30.0671 23.5 32.4375 23.5C34.8079 23.5 37.0811 24.4416 38.7572 26.1177C40.4334 27.7938 41.375 30.0671 41.375 32.4375C41.375 34.8079 40.4334 37.0812 38.7572 38.7573C37.0811 40.4334 34.8079 41.375 32.4375 41.375C30.0671 41.375 27.7938 40.4334 26.1177 38.7573C24.4416 37.0812 23.5 34.8079 23.5 32.4375Z" fill="#B724EB"/>
</g>
<defs>
<clipPath id="clip0_164_267">
<rect width="33" height="33" fill="white" transform="translate(18 18)"/>
</clipPath>
</defs>
</svg>
